<svg id="Layer_1" data-name="Layer 1" xmlns="http://www.w3.org/2000/svg" width="2000" height="2000" viewBox="0 0 2000 2000">
  <title>Bsc Bond-LOGO-WITHOUT-WHITE</title>
  <path d="M1974.48,774.58c-85.53-371.25-377.74-663.49-749-749a1008.34,1008.34,0,0,0-451.06,0C403.29,111.11,111.13,403.26,25.55,774.41a1008.63,1008.63,0,0,0,0,451.08c85.55,371.19,377.72,663.38,748.9,749a1008.43,1008.43,0,0,0,451.08,0c371.15-85.54,663.32-377.67,748.92-748.8a1008.43,1008.43,0,0,0,0-451.08Zm-1610-339a853.92,853.92,0,0,1,71.06-71.06C585.64,231.05,783.35,150,1000,150c216.47,0,414,80.92,564.11,214.16A854.76,854.76,0,0,1,1722.7,552.34l-256.4,256.4-382.34-.1L916,808.6l-382.14-.1L277.47,552.07A852.41,852.41,0,0,1,364.46,435.55ZM150,1000a853.87,853.87,0,0,1,17.93-174.52L342.4,1000,167.92,1174.43A853.06,853.06,0,0,1,150,1000Zm1485.73,564.23a851.84,851.84,0,0,1-71.48,71.48C1414.16,1769,1216.54,1850,1000,1850c-216.82,0-414.68-81.18-564.84-214.81a854.41,854.41,0,0,1-158-187.71l256.71-256,382.15-.09,167.9-.05h0l382.32-.09L1722.8,1447.5A852.69,852.69,0,0,1,1635.73,1564.23Zm196.33-389.66L1657.6,1000.11l174.49-174.49a858.1,858.1,0,0,1,0,348.95Z" fill="#decd4d"/>
</svg>
