<svg id="Layer_1" data-name="Layer 1" xmlns="http://www.w3.org/2000/svg" width="2000" height="2000" viewBox="0 0 2000 2000">
  <title>Bsc Share-LOGO-WITHOUT-WHITE</title>
  <path d="M1974.48,774.58c-85.53-371.25-377.74-663.49-749-749a1008.34,1008.34,0,0,0-451.06,0C403.29,111.11,111.13,403.26,25.55,774.41a1008.63,1008.63,0,0,0,0,451.08c85.55,371.19,377.72,663.38,748.9,749a1008.43,1008.43,0,0,0,451.08,0c371.15-85.54,663.32-377.67,748.92-748.8a1008.43,1008.43,0,0,0,0-451.08Zm-410.23,861.13C1414.16,1769,1216.54,1850,1000,1850c-216.82,0-414.68-81.18-564.84-214.81a854.41,854.41,0,0,1-158-187.71l256.71-256L1000,1657.56l466.3-466.29L1722.8,1447.5a854.38,854.38,0,0,1-158.55,188.21ZM435.52,364.49C585.64,231.05,783.35,150,1000,150c216.47,0,414,80.92,564.11,214.16A854.76,854.76,0,0,1,1722.7,552.34l-256.4,256.4L1000,342.44,533.9,808.5,277.47,552.07a854.07,854.07,0,0,1,158-187.58ZM1275.3,1000l-.13.15L1000,1275.34l-275-275-.38-.39.38-.37,48.2-48.21L796.59,928h0L1000,724.66l275.19,275.2h-.12ZM167.93,825.48,342.4,1000,167.92,1174.43a858.1,858.1,0,0,1,0-349Zm1664.13,349.09L1657.6,1000.11l174.49-174.49a858.1,858.1,0,0,1,0,348.95Z" fill="#decd4d"/>
</svg>
