<svg id="Layer_1" data-name="Layer 1" xmlns="http://www.w3.org/2000/svg" width="2000" height="2000" viewBox="0 0 2000 2000">
  <title>Bsc Cash-LOGO-WITHOUT-WHITE</title>
  <g>
    <path d="M1974.48,774.58c-85.53-371.25-377.74-663.49-749-749a1008.34,1008.34,0,0,0-451.06,0C403.29,111.11,111.13,403.26,25.55,774.41a1008.63,1008.63,0,0,0,0,451.08c85.55,371.19,377.72,663.38,748.9,749a1008.43,1008.43,0,0,0,451.08,0c371.15-85.54,663.32-377.67,748.92-748.8a1008.43,1008.43,0,0,0,0-451.08Zm-142.42,400A845,845,0,0,1,1722.8,1447.5l-256.52-256.23L1000,1657.56,533.9,1191.5l-256.71,256a844.62,844.62,0,0,1-109.27-273L342.4,1000,167.93,825.48A844.82,844.82,0,0,1,277.47,552.07L533.9,808.5,1000,342.44l466.32,466.3,256.4-256.4a844.69,844.69,0,0,1,109.39,273.28L1657.6,1000.11Z" fill="#decd4d"/>
    <polygon points="1275.3 999.99 1275.17 1000.14 999.98 1275.34 725.03 1000.38 724.65 999.99 725.03 999.62 773.23 951.41 796.59 928.04 796.6 928.04 999.98 724.66 1275.17 999.86 1275.05 999.86 1275.3 999.99" fill="#decd4d"/>
  </g>
</svg>
